 <svg  version="1.0" xmlns="http://www.w3.org/2000/svg"  width="109.000000pt" height="137.000000pt" viewBox="0 0 109.000000 137.000000"  preserveAspectRatio="xMidYMid meet">  <g transform="translate(0.000000,137.000000) scale(0.100000,-0.100000)" fill="#ff0000" stroke="none"> <path d="M416 1049 c-113 -39 -202 -112 -254 -209 -12 -23 -22 -44 -22 -46 0 -2 72 -4 160 -4 l160 0 0 25 0 25 -120 0 c-66 0 -120 2 -120 5 0 3 15 22 33 42 89 99 240 155 363 135 135 -22 247 -102 300 -212 25 -52 32 -60 56 -60 15 0 28 2 28 4 0 2 -14 32 -31 66 -84 163 -226 250 -408 250 -60 -1 -104 -7 -145 -21z m-206 -220 c0 -5 -7 -9 -15 -9 -9 0 -12 6 -9 15 6 15 24 11 24 -6z"/> <path d="M525 640 l0 -210 127 0 c127 0 128 0 124 23 -3 21 -8 22 -99 25 l-97 3 0 184 0 185 -27 0 -28 0 0 -210z m40 -170 c3 -5 1 -10 -4 -10 -6 0 -11 5 -11 10 0 6 2 10 4 10 3 0 8 -4 11 -10z"/> <path d="M120 635 l0 -25 170 0 170 0 0 25 0 25 -170 0 -170 0 0 -25z"/> <path d="M770 635 c0 -25 0 -25 94 -25 l94 0 -13 -45 c-23 -74 -46 -115 -94 -164 -126 -129 -339 -157 -496 -66 -35 20 -115 88 -115 97 0 2 49 1 110 0 l110 -4 0 26 0 26 -156 0 c-121 0 -154 -3 -148 -12 10 -17 66 -90 79 -103 28 -28 95 -74 135 -92 99 -45 206 -54 311 -25 179 50 300 186 324 365 l6 47 -120 0 -121 0 0 -25z m210 -15 c0 -5 -2 -10 -4 -10 -3 0 -8 5 -11 10 -3 6 -1 10 4 10 6 0 11 -4 11 -10z m-740 -174 c-25 -14 -40 -13 -40 5 0 5 15 9 33 9 l32 -1 -25 -13z"/> </g> </svg> 